<?xml version="1.0" encoding="UTF-8"?>
<svg id="Layer_1" data-name="Layer 1" xmlns="http://www.w3.org/2000/svg" xmlns:xlink="http://www.w3.org/1999/xlink" viewBox="0 0 1300 900">
  <defs>
    <style>
      .cls-1 {
        clip-path: url(#clippath-4);
      }

      .cls-2 {
        fill: #fff;
      }

      .cls-3 {
        clip-path: url(#clippath-1);
      }

      .cls-4 {
        clip-path: url(#clippath-5);
      }

      .cls-5 {
        clip-path: url(#clippath-3);
      }

      .cls-6 {
        clip-path: url(#clippath-2);
      }

      .cls-7 {
        fill: url(#linear-gradient);
      }

      .cls-8 {
        clip-path: url(#clippath);
      }
    </style>
    <linearGradient id="linear-gradient" x1="-243.63" y1="676.44" x2="1617.62" y2="204.81" gradientUnits="userSpaceOnUse">
      <stop offset="0" stop-color="#b4b4ff"/>
      <stop offset="1" stop-color="#6365ff"/>
    </linearGradient>
    <clipPath id="clippath">
      <path class="cls-2" d="M432.49,407.54h25.95c10.89,0,18.87,8.35,18.87,19.78,0,12.16-8.35,20.69-20.69,20.69h-24.13v-40.47ZM409.62,386.85v126.48h22.87v-44.82h22.5l26.86,44.82h25.95l-30.67-50.45c13.61-5.62,23.05-19.23,23.05-35.93,0-22.87-18.69-40.11-41.19-40.11h-49.36Z"/>
    </clipPath>
    <clipPath id="clippath-1">
      <path class="cls-2" d="M557.53,438.02c12.52,0,22.87,8.89,22.87,19.78h-48.45c.91-11.07,11.98-19.78,25.59-19.78M509.44,467.6v.73c0,28.67,19.96,47.18,48.63,47.18,13.79,0,26.68-3.81,38.47-16.33l-13.25-12.88c-6.71,6.9-13.43,10.52-24.5,10.52-16.15,0-26.68-9.25-27.4-23.77h70.95c.36-3.63.36-7.62.36-7.62,0-25.59-17.96-46.09-45.18-46.09s-48.09,18.87-48.09,48.27"/>
    </clipPath>
    <clipPath id="clippath-2">
      <path class="cls-2" d="M671.69,513.33h22.14v-126.48h-22.14v126.48ZM647.19,384.49c-7.08,0-15.79.36-22.68,5.99-6.71,5.45-10.16,12.7-10.16,27.04v95.82h21.96v-71.5h17.42v-19.96h-17.42v-6.35c0-9.44,3.81-12.7,12.16-12.7h8.16v-18.33h-9.44Z"/>
    </clipPath>
    <clipPath id="clippath-3">
      <path class="cls-2" d="M754.27,438.02c12.52,0,22.87,8.89,22.87,19.78h-48.45c.91-11.07,11.98-19.78,25.59-19.78M706.18,467.6v.73c0,28.67,19.96,47.18,48.63,47.18,13.79,0,26.68-3.81,38.47-16.33l-13.25-12.88c-6.71,6.9-13.43,10.52-24.5,10.52-16.15,0-26.68-9.25-27.4-23.77h70.95c.36-3.63.36-7.62.36-7.62,0-25.59-17.96-46.09-45.18-46.09s-48.09,18.87-48.09,48.27"/>
    </clipPath>
    <clipPath id="clippath-4">
      <path class="cls-2" d="M817.54,484.37l-20.79,28.96h23.77l15.41-21.48c3.75-5.22,11.52-5.22,15.27,0l15.41,21.48h23.77l-20.99-29.04c-6.01-8.31-15.64-13.24-25.9-13.24s-19.95,4.96-25.95,13.32"/>
    </clipPath>
    <clipPath id="clippath-5">
      <path class="cls-2" d="M866.61,419.33l-15.41,21.48c-3.75,5.23-11.52,5.23-15.27,0l-15.41-21.48h-23.77l20.99,29.04c6.01,8.31,15.64,13.24,25.9,13.24s19.95-4.96,25.95-13.32l20.79-28.96h-23.77Z"/>
    </clipPath>
  </defs>
  <rect class="cls-7" x="-14.38" y="-9.95" width="1328.75" height="919.91"/>
  <g>
    <g>
      <path class="cls-2" d="M432.49,407.54h25.95c10.89,0,18.87,8.35,18.87,19.78,0,12.16-8.35,20.69-20.69,20.69h-24.13v-40.47ZM409.62,386.85v126.48h22.87v-44.82h22.5l26.86,44.82h25.95l-30.67-50.45c13.61-5.62,23.05-19.23,23.05-35.93,0-22.87-18.69-40.11-41.19-40.11h-49.36Z"/>
      <g class="cls-8">
        <rect class="cls-2" x="386.25" y="388.34" width="144.92" height="123.5" transform="translate(-80.96 799.02) rotate(-77.34)"/>
      </g>
    </g>
    <g>
      <path class="cls-2" d="M557.53,438.02c12.52,0,22.87,8.89,22.87,19.78h-48.45c.91-11.07,11.98-19.78,25.59-19.78M509.44,467.6v.73c0,28.67,19.96,47.18,48.63,47.18,13.79,0,26.68-3.81,38.47-16.33l-13.25-12.88c-6.71,6.9-13.43,10.52-24.5,10.52-16.15,0-26.68-9.25-27.4-23.77h70.95c.36-3.63.36-7.62.36-7.62,0-25.59-17.96-46.09-45.18-46.09s-48.09,18.87-48.09,48.27"/>
      <g class="cls-3">
        <rect class="cls-2" x="498.94" y="411.38" width="114.28" height="112.08" transform="translate(-21.84 907.55) rotate(-77.34)"/>
      </g>
    </g>
    <g>
      <path class="cls-2" d="M671.69,513.33h22.14v-126.48h-22.14v126.48ZM647.19,384.49c-7.08,0-15.79.36-22.68,5.99-6.71,5.45-10.16,12.7-10.16,27.04v95.82h21.96v-71.5h17.42v-19.96h-17.42v-6.35c0-9.44,3.81-12.7,12.16-12.7h8.16v-18.33h-9.44Z"/>
      <g class="cls-6">
        <rect class="cls-2" x="582.52" y="396.02" width="143.13" height="105.78" transform="translate(72.75 988.72) rotate(-77.34)"/>
      </g>
    </g>
    <g>
      <path class="cls-2" d="M754.27,438.02c12.52,0,22.87,8.89,22.87,19.78h-48.45c.91-11.07,11.98-19.78,25.59-19.78M706.18,467.6v.73c0,28.67,19.96,47.18,48.63,47.18,13.79,0,26.68-3.81,38.47-16.33l-13.25-12.88c-6.71,6.9-13.43,10.52-24.5,10.52-16.15,0-26.68-9.25-27.4-23.77h70.95c.36-3.63.36-7.62.36-7.62,0-25.59-17.96-46.09-45.18-46.09s-48.09,18.87-48.09,48.27"/>
      <g class="cls-5">
        <rect class="cls-2" x="695.67" y="411.38" width="114.28" height="112.08" transform="translate(131.78 1099.51) rotate(-77.34)"/>
      </g>
    </g>
    <g>
      <path class="cls-2" d="M817.54,484.37l-20.79,28.96h23.77l15.41-21.48c3.75-5.22,11.52-5.22,15.27,0l15.41,21.48h23.77l-20.99-29.04c-6.01-8.31-15.64-13.24-25.9-13.24s-19.95,4.96-25.95,13.32"/>
      <g class="cls-1">
        <rect class="cls-2" x="812.68" y="441.88" width="61.77" height="100.62" transform="translate(178.47 1207.39) rotate(-77.34)"/>
      </g>
    </g>
    <g>
      <path class="cls-2" d="M866.61,419.33l-15.41,21.48c-3.75,5.23-11.52,5.23-15.27,0l-15.41-21.48h-23.77l20.99,29.04c6.01,8.31,15.64,13.24,25.9,13.24s19.95-4.96,25.95-13.32l20.79-28.96h-23.77Z"/>
      <g class="cls-4">
        <rect class="cls-2" x="812.68" y="390.16" width="61.77" height="100.62" transform="translate(228.94 1167) rotate(-77.34)"/>
      </g>
    </g>
  </g>
</svg>
